<svg xmlns="http://www.w3.org/2000/svg" viewBox="0 0 1600 1180" role="img" aria-labelledby="title desc">
<title id="title">HXG guided guest pathways</title>
<desc id="desc">Six evidence-linked capability-to-outcome pathways. Each capability can support, but does not prove, a guest outcome.</desc>
<rect width="100%" height="100%" fill="#061522" />
<defs><marker id="arrow" viewBox="0 0 10 10" refX="9" refY="5" markerWidth="7" markerHeight="7" orient="auto"><path d="M 0 0 L 10 5 L 0 10 z" fill="#9eb0bc" /></marker></defs>
<text x="90" y="76" fill="#f6f1e8" font-size="42" font-weight="750">Six guided guest pathways</text>
<text x="90" y="118" fill="#9eb0bc" font-size="21">Capabilities can support guest outcomes; they do not prove perception or value.</text>
<text x="90" y="158" fill="#4cc4d9" font-size="16" font-weight="700">CAPABILITY</text>
<text x="950" y="158" fill="#4cc4d9" font-size="16" font-weight="700">GUEST OUTCOME</text>
<g data-relationship="REL-CASTING-HOME"><rect x="90" y="167" width="540" height="96" rx="8" fill="#0b2134" stroke="#315069" /><circle cx="145" cy="215" r="22" fill="#4cb3ff" /><text x="188" y="223" fill="#f6f1e8" font-size="25" font-weight="700">Cast from your device</text><line x1="670" y1="215" x2="910" y2="215" stroke="#9eb0bc" stroke-width="3" stroke-dasharray="12 9" marker-end="url(#arrow)" /><text x="790" y="199" text-anchor="middle" fill="#b8cad6" font-size="18">can support</text><rect x="950" y="167" width="560" height="96" rx="8" fill="#0b2134" stroke="#4cb3ff" /><circle cx="1005" cy="215" r="22" fill="#4cb3ff" /><text x="1048" y="223" fill="#f6f1e8" font-size="25" font-weight="700">Feel at home</text></g><g data-relationship="REL-IOT-CONTROL"><rect x="90" y="312" width="540" height="96" rx="8" fill="#0b2134" stroke="#315069" /><circle cx="145" cy="360" r="22" fill="#78d35d" /><text x="188" y="368" fill="#f6f1e8" font-size="25" font-weight="700">Control room settings</text><line x1="670" y1="360" x2="910" y2="360" stroke="#9eb0bc" stroke-width="3" stroke-dasharray="12 9" marker-end="url(#arrow)" /><text x="790" y="344" text-anchor="middle" fill="#b8cad6" font-size="18">can support</text><rect x="950" y="312" width="560" height="96" rx="8" fill="#0b2134" stroke="#78d35d" /><circle cx="1005" cy="360" r="22" fill="#78d35d" /><text x="1048" y="368" fill="#f6f1e8" font-size="25" font-weight="700">Feel in control</text></g><g data-relationship="REL-PMS-RECOGNIZED"><rect x="90" y="457" width="540" height="96" rx="8" fill="#0b2134" stroke="#315069" /><circle cx="145" cy="505" r="22" fill="#f4bd32" /><text x="188" y="513" fill="#f6f1e8" font-size="25" font-weight="700">Connect stay context</text><line x1="670" y1="505" x2="910" y2="505" stroke="#9eb0bc" stroke-width="3" stroke-dasharray="12 9" marker-end="url(#arrow)" /><text x="790" y="489" text-anchor="middle" fill="#b8cad6" font-size="18">can support</text><rect x="950" y="457" width="560" height="96" rx="8" fill="#0b2134" stroke="#f4bd32" /><circle cx="1005" cy="505" r="22" fill="#f4bd32" /><text x="1048" y="513" fill="#f6f1e8" font-size="25" font-weight="700">Feel recognized</text></g><g data-relationship="REL-LANGUAGE-INCLUDED"><rect x="90" y="602" width="540" height="96" rx="8" fill="#0b2134" stroke="#315069" /><circle cx="145" cy="650" r="22" fill="#a986ef" /><text x="188" y="658" fill="#f6f1e8" font-size="25" font-weight="700">Present content accessibly</text><line x1="670" y1="650" x2="910" y2="650" stroke="#9eb0bc" stroke-width="3" stroke-dasharray="12 9" marker-end="url(#arrow)" /><text x="790" y="634" text-anchor="middle" fill="#b8cad6" font-size="18">can support</text><rect x="950" y="602" width="560" height="96" rx="8" fill="#0b2134" stroke="#a986ef" /><circle cx="1005" cy="650" r="22" fill="#a986ef" /><text x="1048" y="658" fill="#f6f1e8" font-size="25" font-weight="700">Feel included</text></g><g data-relationship="REL-PRIVACY-SECURE"><rect x="90" y="747" width="540" height="96" rx="8" fill="#0b2134" stroke="#315069" /><circle cx="145" cy="795" r="22" fill="#49c5ca" /><text x="188" y="803" fill="#f6f1e8" font-size="25" font-weight="700">Protect sessions and data</text><line x1="670" y1="795" x2="910" y2="795" stroke="#9eb0bc" stroke-width="3" stroke-dasharray="12 9" marker-end="url(#arrow)" /><text x="790" y="779" text-anchor="middle" fill="#b8cad6" font-size="18">can support</text><rect x="950" y="747" width="560" height="96" rx="8" fill="#0b2134" stroke="#49c5ca" /><circle cx="1005" cy="795" r="22" fill="#49c5ca" /><text x="1048" y="803" fill="#f6f1e8" font-size="25" font-weight="700">Feel secure</text></g><g data-relationship="REL-CONCIERGE-SUPPORTED"><rect x="90" y="892" width="540" height="96" rx="8" fill="#0b2134" stroke="#315069" /><circle cx="145" cy="940" r="22" fill="#f29138" /><text x="188" y="948" fill="#f6f1e8" font-size="25" font-weight="700">Request services and help</text><line x1="670" y1="940" x2="910" y2="940" stroke="#9eb0bc" stroke-width="3" stroke-dasharray="12 9" marker-end="url(#arrow)" /><text x="790" y="924" text-anchor="middle" fill="#b8cad6" font-size="18">can support</text><rect x="950" y="892" width="560" height="96" rx="8" fill="#0b2134" stroke="#f29138" /><circle cx="1005" cy="940" r="22" fill="#f29138" /><text x="1048" y="948" fill="#f6f1e8" font-size="25" font-weight="700">Feel supported</text></g>
<text x="90" y="1120" fill="#6f8492" font-size="16">HXG v0.2.0 · Evidence cutoff 19 August 2026 · Full 32-node graph available in GraphML and JSON.</text>
</svg>